Coordinates
version=1
nRows=11
nColumns=63
inDegrees=yes

Units are S.I. units (second, meters, Newtons, ...)
If the header above contains a line with 'inDegrees', this indicates whether rotational values are in degrees (yes) or radians (no).

endheader
time	pelvis_tilt	pelvis_list	pelvis_rotation	pelvis_tx	pelvis_ty	pelvis_tz	hip_flexion_r	hip_adduction_r	hip_rotation_r	knee_angle_r	knee_angle_r_beta	ankle_angle_r	subtalar_angle_r	mtp_angle_r	hip_flexion_l	hip_adduction_l	hip_rotation_l	knee_angle_l	knee_angle_l_beta	ankle_angle_l	subtalar_angle_l	mtp_angle_l	L5_S1_Flex_Ext	L5_S1_Lat_Bending	L5_S1_axial_rotation	L4_L5_Flex_Ext	L4_L5_Lat_Bending	L4_L5_axial_rotation	L3_L4_Flex_Ext	L3_L4_Lat_Bending	L3_L4_axial_rotation	L2_L3_Flex_Ext	L2_L3_Lat_Bending	L2_L3_axial_rotation	L1_L2_Flex_Ext	L1_L2_Lat_Bending	L1_L2_axial_rotation	L1_T12_Flex_Ext	L1_T12_Lat_Bending	L1_T12_axial_rotation	Abs_r3	Abs_r2	Abs_r1	Abs_t1	Abs_t2	neck_flexion	neck_bending	neck_rotation	arm_flex_r	arm_add_r	arm_rot_r	elbow_flex_r	pro_sup_r	wrist_flex_r	wrist_dev_r	arm_flex_l	arm_add_l	arm_rot_l	elbow_flex_l	pro_sup_l	wrist_flex_l	wrist_dev_l
      2.80000000	      0.06946898	     -2.74649125	     86.15713418	      0.16023110	      0.67187490	      0.76105573	      0.83363351	     -1.97557600	      6.55626756	      6.54792436	      0.11428284	     34.33241155	      3.98938292	      0.00000000	      1.87568848	      0.67915986	      2.87807848	      4.60108691	      0.08030412	     33.01028313	     -3.82949038	      0.00000000	      0.04354469	     -0.14638230	      0.55751508	      0.08086684	     -0.19468846	      0.59235977	      0.07153957	     -0.35591392	      0.59235977	      0.04976722	     -0.35591392	      0.48782569	      0.04043560	     -0.29850279	      0.45298100	      0.02488143	     -0.22674618	      0.41813631	      0.31103534	     -1.65590585	      3.10073159	      0.00000000	      0.00000000	     23.61712726	      1.70286784	      9.84449529	     18.15022795	     -6.55656765	     73.53598715	     47.23017511	     86.45810981	     -1.60875848	     13.47973269	     16.86257157	     -9.77504072	     70.72400122	     45.27967446	     83.09953339	     -4.41394450	     13.40732863
      2.82500000	      0.06887160	     -2.70830106	     85.66420939	      0.16064252	      0.67167872	      0.76094037	      0.88497027	     -1.99224893	      6.66791926	      6.63718579	      0.11584075	     34.44085552	      4.34072402	      0.00000000	      1.73419799	      0.70334572	      2.62955043	      4.31739683	      0.07535279	     33.10447349	     -4.43095596	      0.00000000	      0.05359395	     -0.13895648	      0.69088267	      0.09952933	     -0.18481212	      0.73406284	      0.08804950	     -0.33785879	      0.73406284	      0.06125253	     -0.33785879	      0.60452234	      0.04976734	     -0.28336006	      0.56134217	      0.03062358	     -0.21524359	      0.51816201	      0.38281624	     -1.57190351	      3.84248217	      0.00000000	      0.00000000	     23.92179220	      1.61883012	      9.61413513	     16.94462655	     -6.11854916	     69.65633971	     46.23370949	     83.50210342	      0.89303149	     13.13272270	     16.30054972	     -9.66949717	     67.75959787	     44.96871247	     82.82659528	     -4.46401588	     12.41747597
      2.85000000	      0.02035375	     -2.57352992	     84.94392461	      0.16134280	      0.67134913	      0.76072421	      0.88875542	     -2.08496529	      6.61916065	      6.81859965	      0.11900701	     34.63786441	      5.06186542	      0.00000000	      1.45593174	      0.78068602	      2.37846657	      4.03902112	      0.07049422	     33.16966278	     -5.16809000	      0.00000000	      0.05375323	     -0.13796253	      0.84424370	      0.09982513	     -0.18349017	      0.89700893	      0.08831118	     -0.33544210	      0.89700893	      0.06143457	     -0.33544210	      0.73871324	      0.04991525	     -0.28133319	      0.68594801	      0.03071460	     -0.21370396	      0.63318278	      0.38395396	     -1.56065974	      4.69543019	      0.00000000	      0.00000000	     24.02112199	      1.58095369	      9.38968284	     16.28686158	     -5.81217067	     67.83915236	     45.62979108	     64.64229866	     -0.85183268	     13.22302865	     15.37276781	     -9.58633355	     62.89630530	     44.69359948	     83.95253385	     -3.73121364	     10.84052879
      2.87500000	     -0.10762340	     -2.47078631	     84.22456656	      0.16205430	      0.67085077	      0.76047972	      0.92825491	     -2.25443127	      6.92190035	      7.02439259	      0.12259878	     34.71976495	      5.38387915	      0.00000000	      1.23109605	      0.92834616	      1.67384523	      3.80725384	      0.06644911	     33.31613113	     -5.26573138	      0.00000000	      0.06129126	     -0.15149267	      0.99500714	      0.11382399	     -0.20148526	      1.05719509	      0.10069541	     -0.36833929	      1.05719509	      0.07004978	     -0.36833929	      0.87063125	      0.05691506	     -0.30892386	      0.80844330	      0.03502182	     -0.23466215	      0.74625536	      0.43779732	     -1.71371544	      5.53393122	      0.00000000	      0.00000000	     23.91204691	      1.56524166	      8.86757401	     16.11516642	     -5.48975661	     64.53557310	     45.49144924	     59.65763728	      0.20659191	     13.34793260	     14.97883214	     -9.55814795	     59.40496730	     43.87775835	     85.37891859	     -3.55696419	      7.68423797
      2.90000000	     -0.34346107	     -2.39508650	     83.63423476	      0.16325397	      0.67025764	      0.76035462	      1.00428853	     -2.49545860	      7.21169172	      7.21644583	      0.12595074	     34.80300829	      5.64506706	      0.00000000	      1.06830189	      1.15273588	      1.19458039	      3.65489541	      0.06378996	     33.37585400	     -5.39876246	      0.00000000	      0.07247741	     -0.19457227	      1.08713322	      0.13459780	     -0.25878112	      1.15507905	      0.11907314	     -0.47308302	      1.15507905	      0.08283443	     -0.47308302	      0.95124157	      0.06730252	     -0.39677178	      0.88329575	      0.04141359	     -0.30139245	      0.81534992	      0.51769889	     -2.20104045	      6.04630886	      0.00000000	      0.00000000	     23.54874248	      1.92772911	      8.04474275	     16.86559076	     -5.15237482	     62.43600513	     45.48762166	     58.79115966	      1.24968481	     12.49359156	     14.70432945	     -9.87665781	     56.41939963	     43.18702492	     86.23691017	     -4.53648666	      4.86348180
      2.92500000	     -0.53112524	     -2.37247043	     83.01090565	      0.16432156	      0.66963109	      0.76007569	      1.16518705	     -2.71629531	      7.00278575	      7.40446798	      0.12923235	     35.02934466	      6.70113459	      0.00000000	      0.93539963	      1.32156742	      0.30909956	      3.51743894	      0.06139089	     33.48999392	     -4.94630483	      0.00000000	      0.09570099	     -0.22760887	      1.14159057	      0.17772632	     -0.30271980	      1.21293998	      0.15722716	     -0.55340821	      1.21293998	      0.10937667	     -0.55340821	      0.99889175	      0.08886794	     -0.46414001	      0.92754234	      0.05468355	     -0.35256614	      0.85619293	      0.68358263	     -2.57475709	      6.34918429	      0.00000000	      0.00000000	     23.03761368	      2.06261064	      7.42590170	     18.13577470	     -5.05820536	     60.51341521	     45.90096073	     62.45188868	      3.26467734	     12.23781408	     14.21331819	     -9.91255944	     52.68653331	     41.58280024	     87.13864018	     -4.83745478	      0.18341892
      2.95000000	     -0.71463068	     -2.33831692	     82.38233376	      0.16577057	      0.66914716	      0.75976191	      1.31673775	     -2.89378796	      6.90641278	      7.52429796	      0.13132377	     35.28988994	      7.75166387	      0.00000000	      0.77256013	      1.47366169	     -0.36319327	      3.38085130	      0.05900699	     33.45149060	     -4.85080251	      0.00000000	      0.11791652	     -0.26994979	      1.18177479	      0.21898278	     -0.35903321	      1.25563571	      0.19372506	     -0.65635591	      1.25563571	      0.13476679	     -0.65635591	      1.03405294	      0.10949728	     -0.55048160	      0.96019201	      0.06737750	     -0.41815222	      0.88633109	      0.84226593	     -3.05372596	      6.57267683	      0.00000000	      0.00000000	     22.65131242	      2.44492209	      6.65854303	     19.73176937	     -5.08237149	     59.49502154	     46.65111564	     66.01401233	      4.16624844	     11.46926384	     13.66134116	     -9.93386421	     49.06237911	     39.91388650	     87.11974465	     -5.72050059	     -4.01565925
      2.97500000	     -1.06599376	     -2.27391662	     82.03313933	      0.16669628	      0.66887340	      0.75948633	      1.37816907	     -3.22545914	      7.08877683	      7.46259104	      0.13024678	     35.49760682	      8.12970587	      0.00000000	      0.71088118	      1.82384657	     -0.74860441	      3.40738960	      0.05947017	     33.22530411	     -4.96664579	      0.00000000	      0.13501885	     -0.33469547	      1.21049632	      0.25074350	     -0.44514498	      1.28615233	      0.22182247	     -0.81377857	      1.28615233	      0.15431304	     -0.81377857	      1.05918428	      0.12537850	     -0.68251101	      0.98352826	      0.07714977	     -0.51844329	      0.90787224	      0.96442614	     -3.78614211	      6.73241736	      0.00000000	      0.00000000	     22.33409314	      3.10488224	      5.77313064	     21.58543303	     -5.53461227	     59.65195756	     48.05306408	     67.67188255	      4.08592455	     11.13672988	     13.70147360	    -10.15269722	     47.38248861	     38.65365262	     86.83547811	     -6.74859201	     -5.12093748
      3.00000000	     -1.09697117	     -2.38963702	     81.25874528	      0.16864622	      0.66875620	      0.75956445	      1.80777395	     -3.23598164	      6.01313596	      7.64469208	      0.13342505	     36.03381317	     10.96137812	      0.00000000	      0.70492473	      1.74776067	     -1.96832833	      3.25183016	      0.05675514	     33.35241152	     -4.35969752	      0.00000000	      0.16888688	     -0.35874284	      1.24261963	      0.31363982	     -0.47712797	      1.32028336	      0.27746425	     -0.87224733	      1.32028336	      0.19302081	     -0.87224733	      1.08729218	      0.15682835	     -0.73154839	      1.00962845	      0.09650196	     -0.55569265	      0.93196472	      1.20634208	     -4.05817071	      6.91107760	      0.00000000	      0.00000000	     22.32345180	      3.74688057	      5.15979215	     22.87223677	     -5.26155430	     57.99583858	     48.69605482	     81.77603848	      4.68880159	      8.76262408	     13.70789567	    -10.30956584	     46.90361513	     36.48840391	     87.34247391	     -9.49970955	    -10.14914089
      3.02500000	     -1.18554156	     -2.35344040	     80.71871767	      0.16985704	      0.66903581	      0.76040859	      2.07037564	     -3.27069176	      6.05697249	      7.75133163	      0.13528626	     36.21253878	     11.86858770	      0.00000000	      0.71614676	      1.77983296	     -2.67092193	      3.27742973	      0.05720194	     33.21127556	     -4.27449536	      0.00000000	      0.16544796	     -0.38593620	      1.24580453	      0.30725340	     -0.51329514	      1.32366731	      0.27181445	     -0.93836527	      1.32366731	      0.18909047	     -0.93836527	      1.09007896	      0.15363497	     -0.78700109	      1.01221618	      0.09453696	     -0.59781517	      0.93435339	      1.18177820	     -4.36578744	      6.92879103	      0.00000000	      0.00000000	     22.35029350	      3.96498532	      4.30124060	     25.38422251	     -5.51249163	     60.85997911	     49.42399319	     86.61069219	      3.44761711	      7.81474136	     14.07839294	    -10.72331420	     47.13896347	     35.71943781	     87.51576151	    -11.31056447	    -10.15974102
      3.05000000	     -1.30656372	     -2.43768901	     80.71878580	      0.16992919	      0.66940921	      0.76114462	      2.32149499	     -3.43324202	      4.74807723	      7.77147986	      0.13563791	     36.38911721	     13.67734005	      0.00000000	      0.99209842	      1.79836929	     -4.45677393	      3.50328837	      0.06114392	     33.54815620	     -1.92886739	      0.00000000	      0.18083758	     -0.39934537	      1.19268189	      0.33583346	     -0.53112934	      1.26722451	      0.29709805	     -0.97096832	      1.26722451	      0.20667927	     -0.97096832	      1.04359666	      0.16792577	     -0.81434507	      0.96905404	      0.10333059	     -0.61858597	      0.89451142	      1.29170472	     -4.51747465	      6.63333889	      0.00000000	      0.00000000	     22.20712872	      4.32005901	      4.59362826	     27.57876283	     -5.62155545	     64.54075028	     49.33124507	     87.76045114	      1.62866870	      5.37901653	     14.24645483	    -10.87620348	     46.47997580	     35.91146869	     87.17718967	    -12.91523766	     -8.81777992
